<svg width="300" height="300" viewBox="0 0 300 300" fill="none" xmlns="http://www.w3.org/2000/svg">
<rect width="300" height="300" rx="150" fill="#1C1D24"/>
<g transform="translate(60.300 48.800) scale(4.600)">
<path d="M14.607 32.7595C14.5705 32.44 14.4125 32.1531 14.1622 31.9534C13.9118 31.7529 13.599 31.6633 13.2806 31.6991C12.963 31.7358 12.6778 31.8947 12.4793 32.1466L4.8491 41.8015C4.64978 42.0534 4.56065 42.368 4.59631 42.6883C4.63277 43.0078 4.79077 43.2947 5.04113 43.4944C5.24613 43.6582 5.49326 43.7478 5.74606 43.756C5.89028 43.7609 6.03694 43.7389 6.17873 43.69C6.39345 43.615 6.58224 43.4805 6.72403 43.3012L14.3542 33.6463C14.5535 33.3944 14.6426 33.0798 14.607 32.7595Z" fill="#FFFFFF"/>
<path d="M37.6787 22.9833C37.5916 21.9086 36.8869 21.3819 36.2361 21.4113C35.6495 21.4407 35.0272 21.938 35.0467 22.9588V22.9743C35.454 30.394 30.9851 37.2225 24.1782 39.5809C20.8765 40.725 17.2637 40.7593 13.9385 39.6887L17.8152 34.7776C18.0327 34.5024 18.1305 34.1578 18.0897 33.8091C18.049 33.4604 17.8755 33.1476 17.6001 32.9296C17.0332 32.4805 16.2063 32.5768 15.7567 33.1452L10.7338 39.5082C10.5163 39.7834 10.4185 40.128 10.4592 40.4767C10.5 40.8254 10.6735 41.1382 10.9488 41.3562C11.0612 41.4452 11.1207 41.4967 11.3333 41.6102L11.5467 41.7237C13.7592 42.6448 15.9123 42.9886 18.2763 43.0662C20.5873 43.1413 22.8911 42.8114 25.0343 42.0683C28.9306 40.7184 32.3463 38.0105 34.6516 34.4444C36.8983 30.9697 37.972 26.9006 37.6763 22.9841L37.6787 22.9833Z" fill="#FFFFFF"/>
<path d="M12.5388 28.6985C12.2649 28.4781 11.9215 28.3769 11.5724 28.4136C11.2224 28.4503 10.9077 28.6217 10.6869 28.8943L6.23007 34.3988C5.05271 32.9427 4.14515 31.3046 3.52867 29.5228C0.59833 21.058 5.11239 11.7909 13.5919 8.86561C15.2533 8.29263 17.8231 7.94983 18.6235 7.97595C18.6358 7.97595 18.6472 7.97677 18.6578 7.97758C19.0176 7.98901 19.334 7.80618 19.5278 7.47317C19.787 7.02834 19.7714 6.4064 19.491 5.96238C19.2269 5.54367 18.7625 5.32493 18.2139 5.36003C16.595 5.27596 14.322 5.83261 12.7309 6.38109C2.87866 9.77975 -2.36635 20.5462 1.03821 30.3815C1.91469 32.9133 3.2793 35.1938 5.16881 37.1633C5.18434 37.1796 5.39038 37.3689 5.46724 37.431C5.69454 37.6146 5.96925 37.7142 6.25051 37.7232C6.40913 37.7281 6.5702 37.7044 6.72637 37.6505C6.95939 37.5697 7.16461 37.4261 7.31996 37.2343L12.7359 30.5463C13.1921 29.9823 13.1046 29.1531 12.5396 28.6976L12.5388 28.6985Z" fill="#FFFFFF"/>
<path d="M37.3456 0.670198C36.1991 -0.166551 34.4008 -0.221086 32.1453 0.513918C29.5909 1.3466 26.5718 2.95416 23.8908 5.24383C21.7602 7.06302 18.7966 10.0926 16.8498 14.0525C15.4378 16.7703 15.0401 18.8125 14.6155 20.1612C14.5967 20.2215 14.8572 20.3094 14.84 20.3851L15.9776 20.8612C15.9776 20.8612 17.0572 21.0761 17.3455 21.2055C17.4574 20.0872 18.8783 16.5847 19.4769 15.5412C19.4769 15.5412 19.6075 15.3182 19.65 15.2303C21.9586 10.4637 26.8478 6.57058 30.855 4.65371L35.4813 7.80779C34.9692 12.5686 32.8321 19.4458 26.5065 23.5913C26.4558 23.6311 26.1618 23.7956 26.0949 23.8517L28.1961 25.9998C28.2908 25.946 28.3463 25.9167 28.3545 25.9151C28.4982 25.8931 30.6795 24.2131 30.7178 24.183C34.0472 21.5678 35.9647 17.8895 37.1235 14.8746C38.404 11.5439 38.9756 8.19035 38.9993 5.47662C39.0205 3.10475 38.4636 1.48823 37.3456 0.671826V0.670198Z" fill="#FFFFFF"/>
<path d="M28.9107 23.7704C28.4739 23.074 27.558 22.8995 26.8699 23.3545L21.0454 27.225L21.8393 24.1894C22.019 23.6073 21.797 22.8531 21.3008 22.4894C20.8136 22.1315 20.0531 22.1641 19.5456 22.5049L16.8737 24.1617L17.352 21.4237L17.4569 20.7258C17.5968 19.93 17.0551 19.1758 16.2775 19.047C15.5731 18.9361 14.8476 19.4245 14.663 20.1135C14.6662 20.1102 14.519 20.7315 14.519 20.7315C14.519 20.7315 13.3437 25.5886 13.3453 25.5959L12.9769 27.159C12.7971 27.7412 13.0167 28.382 13.5194 28.7514C14.0066 29.1093 14.6882 29.1175 15.1974 28.7897L18.1141 26.8826L17.1787 30.2451C16.999 30.8273 17.2186 31.4682 17.7212 31.8375C18.2239 32.2069 18.8819 32.1979 19.3992 31.8758L28.5406 25.8063C29.1848 25.344 29.3214 24.4283 28.9082 23.7704H28.9107Z" fill="#FF8A00"/>
</g>
</svg>
